<mxfile host="Electron" modified="2023-05-27T13:47:09.020Z" agent="Mozilla/5.0 (Macintosh; Intel Mac OS X 10_15_7) AppleWebKit/537.36 (KHTML, like Gecko) draw.io/21.2.1 Chrome/112.0.5615.87 Electron/24.1.2 Safari/537.36" etag="xqSKjcPzsleSKkFl7eBc" version="21.2.1" type="device">
  <diagram name="Page-1" id="H1nZVYqxkzLZFgEqRADx">
    <mxGraphModel dx="1483" dy="1783" grid="1" gridSize="10" guides="1" tooltips="1" connect="1" arrows="1" fold="1" page="1" pageScale="1" pageWidth="850" pageHeight="1100" math="0" shadow="0">
      <root>
        <mxCell id="0" />
        <mxCell id="1" parent="0" />
        <mxCell id="AsBp8XiL8Dx4Y6rQVwFH-6907" value="R, W: 88, H: 65, ORDER: 18, GC: {32, 31, 25, 12, 13, 1, 16, 14, 8, 4, 3, 10, 7, 2, 20, 17, 33, 18} " style="text;html=1;strokeColor=none;fillColor=none;align=center;verticalAlign=middle;whiteSpace=wrap;rounded=0;" parent="1" vertex="1">
          <mxGeometry x="50" y="60" width="880" height="30" as="geometry" />
        </mxCell>
        <mxCell id="AsBp8XiL8Dx4Y6rQVwFH-38201" value="R, W: 88, H: 74, ORDER: 22, GC: {20, 17, 23, 3, 8, 6, 18, 5, 28, 15, 13, 14, 9, 19, 1, 12, 10, 2, 27, 36, 11, 25} " style="text;html=1;strokeColor=none;fillColor=none;align=center;verticalAlign=middle;whiteSpace=wrap;rounded=0;" parent="1" vertex="1">
          <mxGeometry x="50" y="800" width="880" height="30" as="geometry" />
        </mxCell>
        <mxCell id="mglqP73aITy3FnMa6ach-1" value="" style="group;flipV=1;" vertex="1" connectable="0" parent="1">
          <mxGeometry x="50" y="110" width="880" height="650" as="geometry" />
        </mxCell>
        <mxCell id="761dnnyQ54j-Cl0NHfQN-6908" value="32" style="rounded=0;whiteSpace=wrap;html=1;" parent="mglqP73aITy3FnMa6ach-1" vertex="1">
          <mxGeometry y="330" width="320" height="320" as="geometry" />
        </mxCell>
        <mxCell id="761dnnyQ54j-Cl0NHfQN-6909" value="31" style="rounded=0;whiteSpace=wrap;html=1;" parent="mglqP73aITy3FnMa6ach-1" vertex="1">
          <mxGeometry x="320" y="340" width="310" height="310" as="geometry" />
        </mxCell>
        <mxCell id="761dnnyQ54j-Cl0NHfQN-6910" value="25" style="rounded=0;whiteSpace=wrap;html=1;" parent="mglqP73aITy3FnMa6ach-1" vertex="1">
          <mxGeometry x="630" y="400" width="250" height="250" as="geometry" />
        </mxCell>
        <mxCell id="761dnnyQ54j-Cl0NHfQN-6911" value="12" style="rounded=0;whiteSpace=wrap;html=1;" parent="mglqP73aITy3FnMa6ach-1" vertex="1">
          <mxGeometry x="630" y="280" width="120" height="120" as="geometry" />
        </mxCell>
        <mxCell id="761dnnyQ54j-Cl0NHfQN-6912" value="13" style="rounded=0;whiteSpace=wrap;html=1;" parent="mglqP73aITy3FnMa6ach-1" vertex="1">
          <mxGeometry x="750" y="270" width="130" height="130" as="geometry" />
        </mxCell>
        <mxCell id="761dnnyQ54j-Cl0NHfQN-6913" value="1" style="rounded=0;whiteSpace=wrap;html=1;" parent="mglqP73aITy3FnMa6ach-1" vertex="1">
          <mxGeometry x="320" y="330" width="10" height="10" as="geometry" />
        </mxCell>
        <mxCell id="761dnnyQ54j-Cl0NHfQN-6914" value="16" style="rounded=0;whiteSpace=wrap;html=1;" parent="mglqP73aITy3FnMa6ach-1" vertex="1">
          <mxGeometry x="330" y="180" width="160" height="160" as="geometry" />
        </mxCell>
        <mxCell id="761dnnyQ54j-Cl0NHfQN-6915" value="14" style="rounded=0;whiteSpace=wrap;html=1;" parent="mglqP73aITy3FnMa6ach-1" vertex="1">
          <mxGeometry x="490" y="200" width="140" height="140" as="geometry" />
        </mxCell>
        <mxCell id="761dnnyQ54j-Cl0NHfQN-6916" value="8" style="rounded=0;whiteSpace=wrap;html=1;" parent="mglqP73aITy3FnMa6ach-1" vertex="1">
          <mxGeometry x="630" y="200" width="80" height="80" as="geometry" />
        </mxCell>
        <mxCell id="761dnnyQ54j-Cl0NHfQN-6917" value="4" style="rounded=0;whiteSpace=wrap;html=1;" parent="mglqP73aITy3FnMa6ach-1" vertex="1">
          <mxGeometry x="710" y="240" width="40" height="40" as="geometry" />
        </mxCell>
        <mxCell id="761dnnyQ54j-Cl0NHfQN-6918" value="3" style="rounded=0;whiteSpace=wrap;html=1;" parent="mglqP73aITy3FnMa6ach-1" vertex="1">
          <mxGeometry x="750" y="240" width="30" height="30" as="geometry" />
        </mxCell>
        <mxCell id="761dnnyQ54j-Cl0NHfQN-6919" value="10" style="rounded=0;whiteSpace=wrap;html=1;" parent="mglqP73aITy3FnMa6ach-1" vertex="1">
          <mxGeometry x="780" y="170" width="100" height="100" as="geometry" />
        </mxCell>
        <mxCell id="761dnnyQ54j-Cl0NHfQN-6920" value="7" style="rounded=0;whiteSpace=wrap;html=1;" parent="mglqP73aITy3FnMa6ach-1" vertex="1">
          <mxGeometry x="710" y="170" width="70" height="70" as="geometry" />
        </mxCell>
        <mxCell id="761dnnyQ54j-Cl0NHfQN-6921" value="2" style="rounded=0;whiteSpace=wrap;html=1;" parent="mglqP73aITy3FnMa6ach-1" vertex="1">
          <mxGeometry x="490" y="180" width="20" height="20" as="geometry" />
        </mxCell>
        <mxCell id="761dnnyQ54j-Cl0NHfQN-6922" value="20" style="rounded=0;whiteSpace=wrap;html=1;" parent="mglqP73aITy3FnMa6ach-1" vertex="1">
          <mxGeometry x="510" width="200" height="200" as="geometry" />
        </mxCell>
        <mxCell id="761dnnyQ54j-Cl0NHfQN-6923" value="17" style="rounded=0;whiteSpace=wrap;html=1;" parent="mglqP73aITy3FnMa6ach-1" vertex="1">
          <mxGeometry x="710" width="170" height="170" as="geometry" />
        </mxCell>
        <mxCell id="761dnnyQ54j-Cl0NHfQN-6924" value="33" style="rounded=0;whiteSpace=wrap;html=1;" parent="mglqP73aITy3FnMa6ach-1" vertex="1">
          <mxGeometry width="330" height="330" as="geometry" />
        </mxCell>
        <mxCell id="761dnnyQ54j-Cl0NHfQN-6925" value="18" style="rounded=0;whiteSpace=wrap;html=1;" parent="mglqP73aITy3FnMa6ach-1" vertex="1">
          <mxGeometry x="330" width="180" height="180" as="geometry" />
        </mxCell>
        <mxCell id="mglqP73aITy3FnMa6ach-2" value="" style="group;flipV=1;" vertex="1" connectable="0" parent="1">
          <mxGeometry x="50" y="850" width="880" height="740" as="geometry" />
        </mxCell>
        <mxCell id="761dnnyQ54j-Cl0NHfQN-38202" value="20" style="rounded=0;whiteSpace=wrap;html=1;" parent="mglqP73aITy3FnMa6ach-2" vertex="1">
          <mxGeometry y="540" width="200" height="200" as="geometry" />
        </mxCell>
        <mxCell id="761dnnyQ54j-Cl0NHfQN-38203" value="17" style="rounded=0;whiteSpace=wrap;html=1;" parent="mglqP73aITy3FnMa6ach-2" vertex="1">
          <mxGeometry x="200" y="570" width="170" height="170" as="geometry" />
        </mxCell>
        <mxCell id="761dnnyQ54j-Cl0NHfQN-38204" value="23" style="rounded=0;whiteSpace=wrap;html=1;" parent="mglqP73aITy3FnMa6ach-2" vertex="1">
          <mxGeometry x="370" y="510" width="230" height="230" as="geometry" />
        </mxCell>
        <mxCell id="761dnnyQ54j-Cl0NHfQN-38205" value="3" style="rounded=0;whiteSpace=wrap;html=1;" parent="mglqP73aITy3FnMa6ach-2" vertex="1">
          <mxGeometry x="200" y="540" width="30" height="30" as="geometry" />
        </mxCell>
        <mxCell id="761dnnyQ54j-Cl0NHfQN-38206" value="8" style="rounded=0;whiteSpace=wrap;html=1;" parent="mglqP73aITy3FnMa6ach-2" vertex="1">
          <mxGeometry x="230" y="490" width="80" height="80" as="geometry" />
        </mxCell>
        <mxCell id="761dnnyQ54j-Cl0NHfQN-38207" value="6" style="rounded=0;whiteSpace=wrap;html=1;" parent="mglqP73aITy3FnMa6ach-2" vertex="1">
          <mxGeometry x="310" y="510" width="60" height="60" as="geometry" />
        </mxCell>
        <mxCell id="761dnnyQ54j-Cl0NHfQN-38208" value="18" style="rounded=0;whiteSpace=wrap;html=1;" parent="mglqP73aITy3FnMa6ach-2" vertex="1">
          <mxGeometry y="360" width="180" height="180" as="geometry" />
        </mxCell>
        <mxCell id="761dnnyQ54j-Cl0NHfQN-38209" value="5" style="rounded=0;whiteSpace=wrap;html=1;" parent="mglqP73aITy3FnMa6ach-2" vertex="1">
          <mxGeometry x="180" y="490" width="50" height="50" as="geometry" />
        </mxCell>
        <mxCell id="761dnnyQ54j-Cl0NHfQN-38210" value="28" style="rounded=0;whiteSpace=wrap;html=1;" parent="mglqP73aITy3FnMa6ach-2" vertex="1">
          <mxGeometry x="600" y="460" width="280" height="280" as="geometry" />
        </mxCell>
        <mxCell id="761dnnyQ54j-Cl0NHfQN-38211" value="15" style="rounded=0;whiteSpace=wrap;html=1;" parent="mglqP73aITy3FnMa6ach-2" vertex="1">
          <mxGeometry x="310" y="360" width="150" height="150" as="geometry" />
        </mxCell>
        <mxCell id="761dnnyQ54j-Cl0NHfQN-38212" value="13" style="rounded=0;whiteSpace=wrap;html=1;" parent="mglqP73aITy3FnMa6ach-2" vertex="1">
          <mxGeometry x="180" y="360" width="130" height="130" as="geometry" />
        </mxCell>
        <mxCell id="761dnnyQ54j-Cl0NHfQN-38213" value="14" style="rounded=0;whiteSpace=wrap;html=1;" parent="mglqP73aITy3FnMa6ach-2" vertex="1">
          <mxGeometry x="460" y="370" width="140" height="140" as="geometry" />
        </mxCell>
        <mxCell id="761dnnyQ54j-Cl0NHfQN-38214" value="9" style="rounded=0;whiteSpace=wrap;html=1;" parent="mglqP73aITy3FnMa6ach-2" vertex="1">
          <mxGeometry x="600" y="370" width="90" height="90" as="geometry" />
        </mxCell>
        <mxCell id="761dnnyQ54j-Cl0NHfQN-38215" value="19" style="rounded=0;whiteSpace=wrap;html=1;" parent="mglqP73aITy3FnMa6ach-2" vertex="1">
          <mxGeometry x="690" y="270" width="190" height="190" as="geometry" />
        </mxCell>
        <mxCell id="761dnnyQ54j-Cl0NHfQN-38216" value="1" style="rounded=0;whiteSpace=wrap;html=1;" parent="mglqP73aITy3FnMa6ach-2" vertex="1">
          <mxGeometry x="460" y="360" width="10" height="10" as="geometry" />
        </mxCell>
        <mxCell id="761dnnyQ54j-Cl0NHfQN-38217" value="12" style="rounded=0;whiteSpace=wrap;html=1;" parent="mglqP73aITy3FnMa6ach-2" vertex="1">
          <mxGeometry x="470" y="250" width="120" height="120" as="geometry" />
        </mxCell>
        <mxCell id="761dnnyQ54j-Cl0NHfQN-38218" value="10" style="rounded=0;whiteSpace=wrap;html=1;" parent="mglqP73aITy3FnMa6ach-2" vertex="1">
          <mxGeometry x="590" y="270" width="100" height="100" as="geometry" />
        </mxCell>
        <mxCell id="761dnnyQ54j-Cl0NHfQN-38219" value="2" style="rounded=0;whiteSpace=wrap;html=1;" parent="mglqP73aITy3FnMa6ach-2" vertex="1">
          <mxGeometry x="590" y="250" width="20" height="20" as="geometry" />
        </mxCell>
        <mxCell id="761dnnyQ54j-Cl0NHfQN-38220" value="27" style="rounded=0;whiteSpace=wrap;html=1;" parent="mglqP73aITy3FnMa6ach-2" vertex="1">
          <mxGeometry x="610" width="270" height="270" as="geometry" />
        </mxCell>
        <mxCell id="761dnnyQ54j-Cl0NHfQN-38221" value="36" style="rounded=0;whiteSpace=wrap;html=1;" parent="mglqP73aITy3FnMa6ach-2" vertex="1">
          <mxGeometry width="360" height="360" as="geometry" />
        </mxCell>
        <mxCell id="761dnnyQ54j-Cl0NHfQN-38222" value="11" style="rounded=0;whiteSpace=wrap;html=1;" parent="mglqP73aITy3FnMa6ach-2" vertex="1">
          <mxGeometry x="360" y="250" width="110" height="110" as="geometry" />
        </mxCell>
        <mxCell id="761dnnyQ54j-Cl0NHfQN-38223" value="25" style="rounded=0;whiteSpace=wrap;html=1;" parent="mglqP73aITy3FnMa6ach-2" vertex="1">
          <mxGeometry x="360" width="250" height="250" as="geometry" />
        </mxCell>
      </root>
    </mxGraphModel>
  </diagram>
</mxfile>
